<svg xmlns="http://www.w3.org/2000/svg" version="1.1" xmlns:xlink="http://www.w3.org/1999/xlink" xmlns:svgjs="http://svgjs.dev/svgjs" viewBox="0 0 800 800"><defs><linearGradient x1="50%" y1="0%" x2="50%" y2="100%" id="cccloud-grad"><stop stop-color="hsla(202, 77%, 50%, 0.27)" stop-opacity="1" offset="0%"></stop><stop stop-color="hsla(51, 19%, 86%, 0.67)" stop-opacity="1" offset="100%"></stop></linearGradient></defs><g fill="url(#cccloud-grad)" stroke-width="11" stroke="hsla(202, 36%, 45%, 1)" id="cloud" transform="matrix(1,0,0,1,0,-360)"><path d="M -31.151833429386443 356.282736413766 A  50 50 0 1 1 200 200 A  50 50 0 1 1 350 200 A  50 50 0 1 1 844.2408463243414 347.12040702460325 A  50 50 0 1 1 645.0262061313808 430.3664806425884 A  50 50 0 1 1 463.0890272849517 496.85864641279454 A  50 50 0 1 1 208.63873538671362 475.1309052312561 A  50 50 0 1 1 -31.151833429386443 356.282736413766 Z" stroke-linecap="round" stroke-linejoin="round"></path></g></svg>