<svg xmlns="http://www.w3.org/2000/svg" xmlns:xlink="http://www.w3.org/1999/xlink" width="100" zoomAndPan="magnify" viewBox="0 0 75 74.999997" height="100" preserveAspectRatio="xMidYMid meet" version="1.0"><defs><clipPath id="6dd6b1a809"><path d="M 1.324219 41.398438 L 73.324219 41.398438 L 73.324219 70.484375 L 1.324219 70.484375 Z M 1.324219 41.398438 " clip-rule="nonzero"/></clipPath><clipPath id="c94b0796be"><path d="M 50.851562 28.949219 L 72.574219 28.949219 L 72.574219 43.199219 L 50.851562 43.199219 Z M 50.851562 28.949219 " clip-rule="nonzero"/></clipPath><clipPath id="bed378822c"><path d="M 21.328125 9.089844 L 53.71875 9.089844 L 53.71875 37.5 L 21.328125 37.5 Z M 21.328125 9.089844 " clip-rule="nonzero"/></clipPath><clipPath id="26502f389d"><path d="M 22.609375 13.71875 C 19.988281 18.039062 21.835938 22.242188 24.15625 24.476562 L 37.734375 37.5 L 51.023438 24.523438 C 53.179688 22.121094 54.007812 19.574219 53.550781 16.738281 C 52.914062 12.816406 49.679688 9.773438 45.6875 9.335938 C 43.238281 9.074219 40.871094 9.765625 39.027344 11.300781 C 38.527344 11.714844 38.085938 12.175781 37.699219 12.675781 C 37.238281 12.105469 36.699219 11.582031 36.089844 11.121094 C 33.96875 9.507812 31.265625 8.867188 28.667969 9.363281 C 26.207031 9.839844 24 11.425781 22.609375 13.71875 Z M 22.609375 13.71875 " clip-rule="nonzero"/></clipPath></defs><g clip-path="url(#6dd6b1a809)"><path fill="#38b6ff" d="M 23.96875 24.863281 C 23.992188 24.890625 24.019531 24.917969 24.042969 24.945312 L 36.6875 37.589844 C 36.878906 37.78125 37.128906 37.890625 37.382812 37.914062 C 37.417969 37.917969 37.457031 37.917969 37.492188 37.917969 C 37.507812 37.917969 37.519531 37.917969 37.53125 37.917969 C 37.816406 37.910156 38.089844 37.789062 38.292969 37.589844 L 50.933594 24.945312 C 50.960938 24.917969 50.984375 24.890625 51.007812 24.863281 L 53.234375 22.636719 C 57.160156 18.714844 57.160156 12.328125 53.234375 8.402344 C 49.308594 4.476562 42.921875 4.476562 38.996094 8.402344 L 37.488281 9.910156 L 35.980469 8.402344 C 32.058594 4.476562 25.671875 4.476562 21.746094 8.402344 C 17.820312 12.328125 17.820312 18.714844 21.746094 22.636719 Z M 23.335938 9.992188 C 24.8125 8.515625 26.777344 7.703125 28.863281 7.703125 C 30.953125 7.703125 32.914062 8.515625 34.390625 9.992188 L 36.695312 12.296875 C 36.90625 12.507812 37.191406 12.625 37.488281 12.625 C 37.789062 12.625 38.074219 12.507812 38.285156 12.296875 L 40.589844 9.992188 C 42.066406 8.515625 44.027344 7.703125 46.117188 7.703125 C 48.203125 7.703125 50.167969 8.515625 51.644531 9.992188 C 54.691406 13.039062 54.691406 18 51.644531 21.046875 L 49.339844 23.351562 C 49.3125 23.378906 49.289062 23.40625 49.265625 23.433594 L 37.488281 35.207031 L 25.714844 23.433594 C 25.691406 23.40625 25.667969 23.378906 25.640625 23.351562 L 23.335938 21.046875 C 20.289062 18 20.289062 13.039062 23.335938 9.992188 Z M 73.171875 36.125 C 71.144531 34.101562 68.097656 33.457031 65.4375 34.453125 C 64.625 34.148438 63.757812 33.988281 62.863281 33.988281 C 60.929688 33.988281 59.109375 34.734375 57.734375 36.09375 L 49.363281 43.183594 C 49.367188 43.09375 49.371094 43.003906 49.371094 42.914062 C 49.371094 42.292969 48.867188 41.789062 48.246094 41.789062 L 22.410156 41.789062 C 18.714844 41.789062 15.242188 43.226562 12.632812 45.835938 L 1.804688 56.664062 C 1.367188 57.101562 1.367188 57.8125 1.804688 58.253906 C 2.027344 58.472656 2.3125 58.582031 2.601562 58.582031 C 2.890625 58.582031 3.175781 58.472656 3.398438 58.253906 L 14.222656 47.429688 C 16.410156 45.242188 19.316406 44.039062 22.410156 44.039062 L 46.988281 44.039062 C 46.480469 46.144531 44.582031 47.710938 42.324219 47.710938 L 28.566406 47.710938 C 27.945312 47.710938 27.441406 48.214844 27.441406 48.835938 C 27.441406 49.457031 27.945312 49.960938 28.566406 49.960938 L 42.324219 49.960938 C 44.316406 49.960938 46.117188 49.128906 47.398438 47.796875 L 59.222656 37.78125 C 59.246094 37.761719 59.269531 37.738281 59.292969 37.71875 C 60.988281 36.019531 63.601562 35.785156 65.550781 37.011719 L 47.648438 54.914062 C 45.984375 56.578125 43.773438 57.496094 41.417969 57.496094 L 23.773438 57.496094 C 21.71875 57.496094 19.789062 58.296875 18.335938 59.746094 L 9.5 68.582031 C 9.0625 69.023438 9.0625 69.734375 9.5 70.171875 C 9.722656 70.394531 10.007812 70.503906 10.296875 70.503906 C 10.585938 70.503906 10.871094 70.394531 11.09375 70.171875 L 19.925781 61.339844 C 20.953125 60.3125 22.320312 59.746094 23.773438 59.746094 L 46.566406 59.746094 C 49.519531 59.746094 52.296875 58.59375 54.386719 56.503906 L 73.171875 37.71875 C 73.613281 37.277344 73.613281 36.566406 73.171875 36.125 Z M 52.792969 54.914062 C 51.554688 56.15625 50.011719 56.980469 48.332031 57.320312 C 48.644531 57.066406 48.949219 56.796875 49.238281 56.503906 L 68.027344 37.71875 C 68.429688 37.316406 68.460938 36.683594 68.128906 36.242188 C 69.03125 36.265625 69.921875 36.527344 70.695312 37.011719 Z M 52.792969 54.914062 " fill-opacity="1" fill-rule="nonzero"/></g><g clip-path="url(#c94b0796be)"><path fill="#38b6ff" d="M 23.21875 25.613281 C 23.242188 25.640625 23.269531 25.667969 23.292969 25.695312 L 35.9375 38.339844 C 36.128906 38.53125 36.378906 38.640625 36.632812 38.664062 C 36.667969 38.667969 36.707031 38.667969 36.742188 38.667969 C 36.757812 38.667969 36.769531 38.667969 36.78125 38.667969 C 37.066406 38.660156 37.339844 38.539062 37.542969 38.339844 L 50.183594 25.695312 C 50.210938 25.667969 50.234375 25.640625 50.257812 25.613281 L 52.484375 23.386719 C 56.410156 19.464844 56.410156 13.078125 52.484375 9.152344 C 48.558594 5.226562 42.171875 5.226562 38.246094 9.152344 L 36.738281 10.660156 L 35.230469 9.152344 C 31.308594 5.226562 24.921875 5.226562 20.996094 9.152344 C 17.070312 13.078125 17.070312 19.464844 20.996094 23.386719 Z M 22.585938 10.742188 C 24.0625 9.265625 26.027344 8.453125 28.113281 8.453125 C 30.203125 8.453125 32.164062 9.265625 33.640625 10.742188 L 35.945312 13.046875 C 36.15625 13.257812 36.441406 13.375 36.738281 13.375 C 37.039062 13.375 37.324219 13.257812 37.535156 13.046875 L 39.839844 10.742188 C 41.316406 9.265625 43.277344 8.453125 45.367188 8.453125 C 47.453125 8.453125 49.417969 9.265625 50.894531 10.742188 C 53.941406 13.789062 53.941406 18.75 50.894531 21.796875 L 48.589844 24.101562 C 48.5625 24.128906 48.539062 24.15625 48.515625 24.183594 L 36.738281 35.957031 L 24.964844 24.183594 C 24.941406 24.15625 24.917969 24.128906 24.890625 24.101562 L 22.585938 21.796875 C 19.539062 18.75 19.539062 13.789062 22.585938 10.742188 Z M 72.421875 36.875 C 70.394531 34.851562 67.347656 34.207031 64.6875 35.203125 C 63.875 34.898438 63.007812 34.738281 62.113281 34.738281 C 60.179688 34.738281 58.359375 35.484375 56.984375 36.84375 L 48.613281 43.933594 C 48.617188 43.84375 48.621094 43.753906 48.621094 43.664062 C 48.621094 43.042969 48.117188 42.539062 47.496094 42.539062 L 21.660156 42.539062 C 17.964844 42.539062 14.492188 43.976562 11.882812 46.585938 L 1.054688 57.414062 C 0.617188 57.851562 0.617188 58.5625 1.054688 59.003906 C 1.277344 59.222656 1.5625 59.332031 1.851562 59.332031 C 2.140625 59.332031 2.425781 59.222656 2.648438 59.003906 L 13.472656 48.179688 C 15.660156 45.992188 18.566406 44.789062 21.660156 44.789062 L 46.238281 44.789062 C 45.730469 46.894531 43.832031 48.460938 41.574219 48.460938 L 27.816406 48.460938 C 27.195312 48.460938 26.691406 48.964844 26.691406 49.585938 C 26.691406 50.207031 27.195312 50.710938 27.816406 50.710938 L 41.574219 50.710938 C 43.566406 50.710938 45.367188 49.878906 46.648438 48.546875 L 58.472656 38.53125 C 58.496094 38.511719 58.519531 38.488281 58.542969 38.46875 C 60.238281 36.769531 62.851562 36.535156 64.800781 37.761719 L 46.898438 55.664062 C 45.234375 57.328125 43.023438 58.246094 40.667969 58.246094 L 23.023438 58.246094 C 20.96875 58.246094 19.039062 59.046875 17.585938 60.496094 L 8.75 69.332031 C 8.3125 69.773438 8.3125 70.484375 8.75 70.921875 C 8.972656 71.144531 9.257812 71.253906 9.546875 71.253906 C 9.835938 71.253906 10.121094 71.144531 10.34375 70.921875 L 19.175781 62.089844 C 20.203125 61.0625 21.570312 60.496094 23.023438 60.496094 L 45.816406 60.496094 C 48.769531 60.496094 51.546875 59.34375 53.636719 57.253906 L 72.421875 38.46875 C 72.863281 38.027344 72.863281 37.316406 72.421875 36.875 Z M 52.042969 55.664062 C 50.804688 56.90625 49.261719 57.730469 47.582031 58.070312 C 47.894531 57.816406 48.199219 57.546875 48.488281 57.253906 L 67.277344 38.46875 C 67.679688 38.066406 67.710938 37.433594 67.378906 36.992188 C 68.28125 37.015625 69.171875 37.277344 69.945312 37.761719 Z M 52.042969 55.664062 " fill-opacity="1" fill-rule="nonzero"/></g><g clip-path="url(#bed378822c)"><g clip-path="url(#26502f389d)"><path fill="#ff5757" d="M 21.328125 9.199219 L 53.71875 9.199219 L 53.71875 37.5 L 21.328125 37.5 Z M 21.328125 9.199219 " fill-opacity="1" fill-rule="nonzero"/></g></g></svg>